<svg width="36" height="36" viewBox="0 0 36 36" fill="none" xmlns="http://www.w3.org/2000/svg">
<path fill-rule="evenodd" clip-rule="evenodd" d="M18 4.5C10.5442 4.5 4.5 10.5442 4.5 18C4.5 25.4558 10.5442 31.5 18 31.5C25.4558 31.5 31.5 25.4558 31.5 18C31.5 10.5442 25.4558 4.5 18 4.5ZM1.5 18C1.5 8.8873 8.8873 1.5 18 1.5C27.1127 1.5 34.5 8.8873 34.5 18C34.5 27.1127 27.1127 34.5 18 34.5C8.8873 34.5 1.5 27.1127 1.5 18Z" fill="black"/>
<path fill-rule="evenodd" clip-rule="evenodd" d="M18 9C18.8284 9 19.5 9.67157 19.5 10.5V16.5H25.5C26.3284 16.5 27 17.1716 27 18C27 18.8284 26.3284 19.5 25.5 19.5H18C17.1716 19.5 16.5 18.8284 16.5 18V10.5C16.5 9.67157 17.1716 9 18 9Z" fill="black"/>
</svg>
