<svg width="36" height="36" viewBox="0 0 36 36" fill="none" xmlns="http://www.w3.org/2000/svg">
<path fill-rule="evenodd" clip-rule="evenodd" d="M17.5861 3.73387C17.9049 4.18078 17.9542 4.76614 17.7144 5.26001C16.8268 7.08875 16.4183 9.11301 16.5272 11.1429C16.6361 13.1727 17.2588 15.1417 18.337 16.8649C19.4153 18.5882 20.9136 20.0093 22.6914 20.995C24.4673 21.9796 26.4639 22.4974 28.4943 22.5C28.9828 22.4956 29.4707 22.4642 29.9557 22.4058C30.5004 22.3402 31.0375 22.5772 31.3561 23.0239C31.6748 23.4705 31.7241 24.0555 31.4848 24.5492C30.3498 26.8911 28.625 28.8975 26.4799 30.371C24.3348 31.8446 21.8433 32.7347 19.25 32.954C16.6568 33.1732 14.0512 32.7139 11.6892 31.6213C9.32716 30.5287 7.29004 28.8404 5.77801 26.7222C4.26598 24.6041 3.33105 22.129 3.0651 19.5401C2.79916 16.9513 3.21134 14.3378 4.26115 11.9564C5.31096 9.5751 6.96227 7.50786 9.05281 5.95787C11.1434 4.40788 13.6012 3.42846 16.1848 3.11587C16.7298 3.04993 17.2673 3.28697 17.5861 3.73387ZM27.393 25.4584C25.2365 25.2974 23.1357 24.6715 21.2368 23.6187C19.0145 22.3867 17.1416 20.6103 15.7938 18.4562C14.4461 16.3021 13.6676 13.8409 13.5315 11.3036C13.4478 9.74403 13.6085 8.18712 14.0024 6.68797C12.8746 7.08493 11.8078 7.64984 10.8396 8.36775C9.16713 9.60774 7.84608 11.2615 7.00623 13.1666C6.16639 15.0717 5.83664 17.1625 6.0494 19.2335C6.26216 21.3046 7.0101 23.2847 8.21972 24.9793C9.42935 26.6738 11.059 28.0244 12.9487 28.8985C14.8383 29.7726 16.9228 30.14 18.9974 29.9646C21.0719 29.7893 23.0652 29.0771 24.7813 27.8983C25.7728 27.2171 26.6521 26.3937 27.393 25.4584Z" fill="black"/>
</svg>
