<svg width="36" height="36" viewBox="0 0 36 36" fill="none" xmlns="http://www.w3.org/2000/svg">
<path fill-rule="evenodd" clip-rule="evenodd" d="M18 10.5C13.8579 10.5 10.5 13.8579 10.5 18C10.5 22.1421 13.8579 25.5 18 25.5C22.1421 25.5 25.5 22.1421 25.5 18C25.5 13.8579 22.1421 10.5 18 10.5ZM13.5 18C13.5 15.5147 15.5147 13.5 18 13.5C20.4853 13.5 22.5 15.5147 22.5 18C22.5 20.4853 20.4853 22.5 18 22.5C15.5147 22.5 13.5 20.4853 13.5 18Z" fill="black"/>
<path fill-rule="evenodd" clip-rule="evenodd" d="M34.4548 18.3653C34.4548 18.3653 34.4552 18.3638 33 18L34.4552 18.3638C34.529 18.0687 34.5113 17.7581 34.4045 17.4733L33 18C34.4045 17.4733 34.404 17.4721 34.404 17.4721L34.4021 17.4669L34.398 17.4561L34.3847 17.4216C34.3735 17.393 34.3579 17.3533 34.3376 17.3032C34.2971 17.2029 34.2381 17.0609 34.1604 16.8831C34.0049 16.5279 33.7737 16.0282 33.4632 15.4321C32.8441 14.2435 31.9004 12.6526 30.6017 11.0541C28.0179 7.87413 23.8832 4.5 18 4.5C12.1168 4.5 7.98206 7.87413 5.39833 11.0541C4.09959 12.6526 3.15589 14.2435 2.53682 15.4321C2.22635 16.0282 1.99507 16.5279 1.83963 16.8831C1.76186 17.0609 1.70291 17.2029 1.66239 17.3032C1.64213 17.3533 1.62646 17.393 1.61533 17.4216L1.60203 17.4561L1.59793 17.4669L1.59651 17.4707L1.59595 17.4721C1.59595 17.4721 1.59551 17.4733 3 18L1.59551 17.4733C1.4887 17.7581 1.47101 18.0687 1.54479 18.3638L3 18C1.54479 18.3638 1.54516 18.3653 1.54516 18.3653L1.5456 18.367L1.5467 18.3714L1.54976 18.3833L1.55943 18.4202C1.56747 18.4504 1.57874 18.4918 1.59343 18.5437C1.62281 18.6474 1.66592 18.793 1.7243 18.9746C1.84096 19.3376 2.01922 19.8461 2.27163 20.4519C2.77481 21.6596 3.58186 23.2758 4.8 24.9C7.25473 28.173 11.4107 31.5 18 31.5C24.5893 31.5 28.7453 28.173 31.2 24.9C32.4181 23.2758 33.2252 21.6596 33.7284 20.4519C33.9808 19.8461 34.159 19.3376 34.2757 18.9746C34.3341 18.793 34.3772 18.6474 34.4066 18.5437C34.4213 18.4918 34.4325 18.4504 34.4406 18.4202L34.4502 18.3833L34.4533 18.3714L34.4548 18.3653ZM5.04087 19.2981C4.83104 18.7945 4.68374 18.3758 4.58905 18.0834C4.72074 17.7825 4.92275 17.3455 5.19756 16.8179C5.75036 15.7565 6.58791 14.3474 7.72667 12.9459C10.0179 10.1259 13.3832 7.5 18 7.5C22.6168 7.5 25.9821 10.1259 28.2733 12.9459C29.4121 14.3474 30.2496 15.7565 30.8024 16.8179C31.0773 17.3455 31.2793 17.7825 31.411 18.0834C31.3163 18.3758 31.169 18.7945 30.9591 19.2981C30.5248 20.3404 29.8319 21.7242 28.8 23.1C26.7547 25.827 23.4107 28.5 18 28.5C12.5893 28.5 9.24527 25.827 7.2 23.1C6.16814 21.7242 5.47519 20.3404 5.04087 19.2981Z" fill="black"/>
</svg>
