<svg width="36" height="36" viewBox="0 0 36 36" fill="none" xmlns="http://www.w3.org/2000/svg">
<path d="M18 1.5C18.8284 1.5 19.5 2.17157 19.5 3V6C19.5 6.82843 18.8284 7.5 18 7.5C17.1716 7.5 16.5 6.82843 16.5 6V3C16.5 2.17157 17.1716 1.5 18 1.5Z" fill="black"/>
<path fill-rule="evenodd" clip-rule="evenodd" d="M10.5 18C10.5 13.8579 13.8579 10.5 18 10.5C22.1421 10.5 25.5 13.8579 25.5 18C25.5 22.1421 22.1421 25.5 18 25.5C13.8579 25.5 10.5 22.1421 10.5 18ZM18 13.5C15.5147 13.5 13.5 15.5147 13.5 18C13.5 20.4853 15.5147 22.5 18 22.5C20.4853 22.5 22.5 20.4853 22.5 18C22.5 15.5147 20.4853 13.5 18 13.5Z" fill="black"/>
<path d="M19.5 30C19.5 29.1716 18.8284 28.5 18 28.5C17.1716 28.5 16.5 29.1716 16.5 30V33C16.5 33.8284 17.1716 34.5 18 34.5C18.8284 34.5 19.5 33.8284 19.5 33V30Z" fill="black"/>
<path d="M28.5 18C28.5 17.1716 29.1716 16.5 30 16.5H33C33.8284 16.5 34.5 17.1716 34.5 18C34.5 18.8284 33.8284 19.5 33 19.5H30C29.1716 19.5 28.5 18.8284 28.5 18Z" fill="black"/>
<path d="M3 16.5C2.17157 16.5 1.5 17.1716 1.5 18C1.5 18.8284 2.17157 19.5 3 19.5H6C6.82843 19.5 7.5 18.8284 7.5 18C7.5 17.1716 6.82843 16.5 6 16.5H3Z" fill="black"/>
<path d="M25.4293 25.4293C26.0151 24.8435 26.9649 24.8435 27.5506 25.4293L29.6656 27.5443C30.2514 28.1301 30.2514 29.0799 29.6656 29.6656C29.0799 30.2514 28.1301 30.2514 27.5443 29.6656L25.4293 27.5506C24.8435 26.9649 24.8435 26.0151 25.4293 25.4293Z" fill="black"/>
<path d="M8.45568 6.33436C7.86989 5.74857 6.92015 5.74857 6.33436 6.33436C5.74857 6.92015 5.74857 7.86989 6.33436 8.45568L8.44936 10.5707C9.03515 11.1565 9.98489 11.1565 10.5707 10.5707C11.1565 9.98489 11.1565 9.03515 10.5707 8.44936L8.45568 6.33436Z" fill="black"/>
<path d="M10.5707 25.4293C11.1565 26.0151 11.1565 26.9649 10.5707 27.5507L8.45568 29.6656C7.86989 30.2514 6.92015 30.2514 6.33436 29.6656C5.74857 29.0799 5.74857 28.1301 6.33436 27.5443L8.44936 25.4293C9.03515 24.8435 9.98489 24.8435 10.5707 25.4293Z" fill="black"/>
<path d="M29.6656 8.45568C30.2514 7.86989 30.2514 6.92015 29.6656 6.33436C29.0799 5.74857 28.1301 5.74857 27.5443 6.33436L25.4293 8.44936C24.8435 9.03515 24.8435 9.98489 25.4293 10.5707C26.0151 11.1565 26.9649 11.1565 27.5507 10.5707L29.6656 8.45568Z" fill="black"/>
</svg>
