<svg width="36" height="36" viewBox="0 0 36 36" fill="none" xmlns="http://www.w3.org/2000/svg">
<path fill-rule="evenodd" clip-rule="evenodd" d="M10.5 1.5C11.3284 1.5 12 2.17157 12 3V4.5H24V3C24 2.17157 24.6716 1.5 25.5 1.5C26.3284 1.5 27 2.17157 27 3V4.5H28.5C31.8137 4.5 34.5 7.18629 34.5 10.5V28.5C34.5 31.8137 31.8137 34.5 28.5 34.5H7.5C4.18629 34.5 1.5 31.8137 1.5 28.5V10.5C1.5 7.18629 4.18629 4.5 7.5 4.5H9V3C9 2.17157 9.67157 1.5 10.5 1.5ZM24 7.5V9C24 9.82843 24.6716 10.5 25.5 10.5C26.3284 10.5 27 9.82843 27 9V7.5H28.5C30.1569 7.5 31.5 8.84315 31.5 10.5V28.5C31.5 30.1569 30.1569 31.5 28.5 31.5H7.5C5.84315 31.5 4.5 30.1569 4.5 28.5V10.5C4.5 8.84315 5.84315 7.5 7.5 7.5H9V9C9 9.82843 9.67157 10.5 10.5 10.5C11.3284 10.5 12 9.82843 12 9V7.5H24Z" fill="black"/>
</svg>
