<svg width="36" height="36" viewBox="0 0 36 36" fill="none" xmlns="http://www.w3.org/2000/svg">
<path d="M6.06066 3.93934C5.47487 3.35355 4.52513 3.35355 3.93934 3.93934C3.35355 4.52513 3.35355 5.47487 3.93934 6.06066L30.4393 32.5607C31.0251 33.1464 31.9749 33.1464 32.5607 32.5607C33.1464 31.9749 33.1464 31.0251 32.5607 30.4393L6.06066 3.93934Z" fill="black"/>
<path d="M28.7815 23.1246L28.8 23.1C29.8319 21.7242 30.5248 20.3404 30.9591 19.2981C31.169 18.7945 31.3163 18.3758 31.411 18.0834C31.2793 17.7825 31.0773 17.3455 30.8024 16.8179C30.2496 15.7565 29.4121 14.3474 28.2733 12.9459C25.9821 10.1259 22.6168 7.5 18 7.5C16.5043 7.5 15.14 7.7756 13.901 8.24411L11.6188 5.96194C13.4597 5.06987 15.5822 4.5 18 4.5C23.8832 4.5 28.0179 7.87413 30.6017 11.0541C31.9004 12.6526 32.8441 14.2435 33.4632 15.4321C33.7737 16.0282 34.0049 16.5279 34.1604 16.8831C34.2381 17.0609 34.2971 17.2029 34.3376 17.3032C34.3579 17.3533 34.3735 17.393 34.3847 17.4216L34.398 17.4561L34.4021 17.4669L34.404 17.4721C34.404 17.4721 34.4045 17.4733 33 18C34.4552 18.3638 34.4548 18.3653 34.4548 18.3653L34.4533 18.3714L34.4502 18.3833L34.4406 18.4202C34.4325 18.4504 34.4213 18.4918 34.4066 18.5437C34.3772 18.6474 34.3341 18.793 34.2757 18.9746C34.159 19.3376 33.9808 19.8461 33.7284 20.4519C33.2252 21.6596 32.4181 23.2758 31.2 24.9C31.1091 25.0212 31.0159 25.1424 30.9204 25.2635L28.7815 23.1246Z" fill="black"/>
<path d="M33 18L34.4045 17.4733C34.5113 17.7581 34.529 18.0687 34.4552 18.3638L33 18Z" fill="black"/>
<path d="M16.341 10.6841L19.3688 13.712C20.7532 14.1535 21.8465 15.2468 22.288 16.6312L25.3159 19.659C25.4364 19.1253 25.5 18.5701 25.5 18C25.5 13.8579 22.1421 10.5 18 10.5C17.4299 10.5 16.8747 10.5636 16.341 10.6841Z" fill="black"/>
<path d="M5.39785 11.0547C4.09936 12.653 3.15582 14.2436 2.53682 15.4321C2.22635 16.0282 1.99507 16.5279 1.83963 16.8831C1.76186 17.0609 1.70291 17.2029 1.66239 17.3032C1.64213 17.3533 1.62646 17.393 1.61533 17.4216L1.60203 17.4561L1.59793 17.4669L1.59651 17.4707L1.59595 17.4721C1.59595 17.4721 1.59551 17.4733 3 18L1.59551 17.4733C1.4887 17.7581 1.47101 18.0687 1.54479 18.3638L3 18C1.54479 18.3638 1.54516 18.3653 1.54516 18.3653L1.5456 18.367L1.5467 18.3714L1.54976 18.3833L1.55943 18.4202C1.56747 18.4504 1.57874 18.4918 1.59343 18.5437C1.62281 18.6474 1.66592 18.793 1.7243 18.9746C1.84096 19.3376 2.01922 19.8461 2.27163 20.4519C2.77481 21.6596 3.58186 23.2758 4.8 24.9C7.25473 28.173 11.4107 31.5 18 31.5C20.5325 31.5 22.7056 31.0086 24.5608 30.2176L22.226 27.8828C20.9804 28.2726 19.5781 28.5 18 28.5C12.5893 28.5 9.24527 25.827 7.2 23.1C6.16814 21.7242 5.47519 20.3404 5.04087 19.2981C4.83104 18.7945 4.68374 18.3758 4.58905 18.0834C4.72074 17.7825 4.92275 17.3455 5.19756 16.8179C5.71839 15.8179 6.49201 14.5092 7.53216 13.189L5.39785 11.0547Z" fill="black"/>
<path d="M10.6841 16.341C10.5636 16.8747 10.5 17.4299 10.5 18C10.5 22.1421 13.8579 25.5 18 25.5C18.5701 25.5 19.1253 25.4364 19.659 25.3159L16.6312 22.288C15.2468 21.8465 14.1535 20.7532 13.712 19.3688L10.6841 16.341Z" fill="black"/>
</svg>
